<?xml version="1.0" encoding="UTF-8"?>
<!DOCTYPE svg PUBLIC "-//W3C//DTD SVG 1.1//EN" "http://www.w3.org/Graphics/SVG/1.1/DTD/svg11.dtd">
<svg xmlns="http://www.w3.org/2000/svg" version="1.1" width="2303px" height="636px" style="shape-rendering:geometricPrecision; text-rendering:geometricPrecision; image-rendering:optimizeQuality; fill-rule:evenodd; clip-rule:evenodd" xmlns:xlink="http://www.w3.org/1999/xlink">
<g><path style="opacity:0.994" fill="#0167a8" d="M 204.5,-0.5 C 341.5,-0.5 478.5,-0.5 615.5,-0.5C 613.729,78.9036 579.062,139.07 511.5,180C 480.067,197.31 446.4,206.144 410.5,206.5C 273.668,205.5 136.668,205.167 -0.5,205.5C -0.5,199.167 -0.5,192.833 -0.5,186.5C 7.47229,119.702 39.4723,67.8686 95.5,31C 129.085,10.6901 165.418,0.190121 204.5,-0.5 Z"/></g>
<g><path style="opacity:0.982" fill="#21263e" d="M 1972.5,185.5 C 1995.5,185.5 2018.5,185.5 2041.5,185.5C 2041.5,294.833 2041.5,404.167 2041.5,513.5C 2018.5,513.5 1995.5,513.5 1972.5,513.5C 1972.5,404.167 1972.5,294.833 1972.5,185.5 Z"/></g>
<g><path style="opacity:0.985" fill="#21263e" d="M 838.5,192.5 C 896.945,188.658 944.778,208.991 982,253.5C 984.698,257.367 987.198,261.367 989.5,265.5C 968.819,277.997 947.986,290.331 927,302.5C 912.713,279.422 891.88,266.589 864.5,264C 832.025,260.376 804.859,270.542 783,294.5C 766.823,316.875 760.489,341.875 764,369.5C 771.985,420.814 801.985,447.48 854,449.5C 885.679,449.418 910.179,436.418 927.5,410.5C 948.082,422.374 968.582,434.374 989,446.5C 987.934,449.966 986.267,453.299 984,456.5C 956.995,492.1 921.161,512.933 876.5,519C 808.021,526.664 754.187,502.498 715,446.5C 690.526,403.796 684.193,358.463 696,310.5C 710.456,260.374 741.623,224.874 789.5,204C 805.493,198.083 821.826,194.25 838.5,192.5 Z"/></g>
<g><path style="opacity:0.982" fill="#21263e" d="M 1023.5,198.5 C 1046.5,198.5 1069.5,198.5 1092.5,198.5C 1092.33,234.835 1092.5,271.168 1093,307.5C 1101.39,296.806 1112.22,289.64 1125.5,286C 1154.43,277.934 1181.43,281.934 1206.5,298C 1228.21,315.92 1239.37,339.087 1240,367.5C 1240.5,416.166 1240.67,464.832 1240.5,513.5C 1217.5,513.5 1194.5,513.5 1171.5,513.5C 1171.67,467.499 1171.5,421.499 1171,375.5C 1166.04,355.884 1153.37,345.884 1133,345.5C 1112.71,345.469 1099.71,355.136 1094,374.5C 1092.53,420.794 1092.03,467.128 1092.5,513.5C 1069.5,513.5 1046.5,513.5 1023.5,513.5C 1023.5,408.5 1023.5,303.5 1023.5,198.5 Z"/></g>
<g><path style="opacity:0.99" fill="#21263e" d="M 1740.5,198.5 C 1804.5,198.5 1868.5,198.5 1932.5,198.5C 1932.5,221.833 1932.5,245.167 1932.5,268.5C 1892.83,268.5 1853.17,268.5 1813.5,268.5C 1813.5,288.5 1813.5,308.5 1813.5,328.5C 1852.5,328.5 1891.5,328.5 1930.5,328.5C 1930.5,351.833 1930.5,375.167 1930.5,398.5C 1891.5,398.5 1852.5,398.5 1813.5,398.5C 1813.5,436.833 1813.5,475.167 1813.5,513.5C 1789.17,513.5 1764.83,513.5 1740.5,513.5C 1740.5,408.5 1740.5,303.5 1740.5,198.5 Z"/></g>
<g><path style="opacity:0.998" fill="#2e76b5" d="M -0.5,205.5 C 136.668,205.167 273.668,205.5 410.5,206.5C 407.79,284.953 373.123,344.453 306.5,385C 275.109,402.431 241.442,411.265 205.5,411.5C 137.002,410.501 68.3354,410.167 -0.5,410.5C -0.5,342.167 -0.5,273.833 -0.5,205.5 Z"/></g>
<g><path style="opacity:0.984" fill="#21263e" d="M 1648.5,225.5 C 1650.49,246.14 1651.16,267.14 1650.5,288.5C 1666.17,288.5 1681.83,288.5 1697.5,288.5C 1697.5,310.5 1697.5,332.5 1697.5,354.5C 1681.83,354.5 1666.17,354.5 1650.5,354.5C 1650.06,382.866 1650.56,411.2 1652,439.5C 1653.47,444.974 1656.97,448.474 1662.5,450C 1673.78,452.431 1685.11,452.931 1696.5,451.5C 1697.5,472.489 1697.83,493.489 1697.5,514.5C 1676.43,516.279 1655.43,515.779 1634.5,513C 1603.45,505.94 1586.62,486.44 1584,454.5C 1582.57,421.191 1582.07,387.858 1582.5,354.5C 1570.5,354.5 1558.5,354.5 1546.5,354.5C 1546.5,332.5 1546.5,310.5 1546.5,288.5C 1558.5,288.5 1570.5,288.5 1582.5,288.5C 1582.5,274.167 1582.5,259.833 1582.5,245.5C 1604.77,239.406 1626.77,232.739 1648.5,225.5 Z"/></g>
<g><path style="opacity:0.985" fill="#21263e" d="M 1368.5,282.5 C 1390.69,280.167 1411.69,284 1431.5,294C 1437.29,298.122 1442.79,302.622 1448,307.5C 1448.5,301.175 1448.67,294.842 1448.5,288.5C 1471.5,288.5 1494.5,288.5 1517.5,288.5C 1517.5,363.5 1517.5,438.5 1517.5,513.5C 1494.5,513.5 1471.5,513.5 1448.5,513.5C 1448.67,507.158 1448.5,500.825 1448,494.5C 1430.01,512.449 1408.18,521.116 1382.5,520.5C 1334.75,517.25 1301.59,493.584 1283,449.5C 1270.61,413.63 1271.94,378.297 1287,343.5C 1304.39,309.918 1331.56,289.585 1368.5,282.5 Z M 1394.5,346.5 C 1429.36,348.361 1447.36,366.694 1448.5,401.5C 1446.98,435.354 1429.31,453.354 1395.5,455.5C 1361.76,453.411 1344.1,435.411 1342.5,401.5C 1344.21,368.131 1361.54,349.797 1394.5,346.5 Z"/></g>
<g><path style="opacity:0.985" fill="#21263e" d="M 2302.5,288.5 C 2302.5,289.833 2302.5,291.167 2302.5,292.5C 2275.87,365.879 2249.7,439.546 2224,513.5C 2215.24,537.54 2202.07,558.707 2184.5,577C 2159.3,597.725 2130.3,606.558 2097.5,603.5C 2097.5,582.167 2097.5,560.833 2097.5,539.5C 2125.56,541.641 2144.23,529.474 2153.5,503C 2123.15,431.764 2093.48,360.264 2064.5,288.5C 2089.5,288.5 2114.5,288.5 2139.5,288.5C 2155.36,333.579 2171.53,378.579 2188,423.5C 2202.73,378.802 2216.57,333.802 2229.5,288.5C 2253.83,288.5 2278.17,288.5 2302.5,288.5 Z"/></g>
<g><path style="opacity:0.995" fill="#3290ca" d="M -0.5,410.5 C 68.3354,410.167 137.002,410.501 205.5,411.5C 202.589,489.861 167.923,549.361 101.5,590C 69.7866,607.595 35.7866,616.428 -0.5,616.5C -0.5,547.833 -0.5,479.167 -0.5,410.5 Z"/></g>
</svg>
