<?xml version="1.0" encoding="UTF-8"?>
<svg version="1.1" xmlns="http://www.w3.org/2000/svg" width="1082" height="1082">
<path d="M0 0 C15.10850141 45.32550424 -16.35283917 121.39198633 -36.08984375 161.28515625 C-42.66509493 174.34291046 -49.84301902 186.86982082 -58 199 C-58.54769043 199.81807129 -59.09538086 200.63614258 -59.65966797 201.47900391 C-70.41773249 217.44882122 -82.25627684 232.25097555 -95.453125 246.265625 C-97.46240824 248.42283093 -99.37811637 250.60056075 -101.25 252.875 C-103.79427721 255.88853871 -106.62690958 258.39489604 -109.6328125 260.94140625 C-111.92804046 262.93742132 -114.13212797 265.01229108 -116.33520508 267.10888672 C-123.77644666 274.14989087 -131.71695311 280.36428125 -139.94042969 286.46240234 C-141.82304678 287.86789339 -143.68374549 289.29706931 -145.5390625 290.73828125 C-182.10239409 318.82240707 -226.60427021 338.60590983 -271.32763672 349.35546875 C-273.1859079 349.80365402 -275.04155476 350.26280417 -276.89501953 350.73046875 C-292.32241263 354.58792893 -307.63485154 356.85177855 -323.4375 358.375 C-324.31472717 358.46049103 -325.19195435 358.54598206 -326.09576416 358.63406372 C-336.09048469 359.58977388 -345.95205854 360.26624599 -356 360 C-356.01458252 360.60545654 -356.02916504 361.21091309 -356.04418945 361.8347168 C-356.69179063 386.34058606 -358.94698984 410.17924539 -363.875 434.1875 C-364.03976837 434.99431213 -364.20453674 435.80112427 -364.3742981 436.63238525 C-367.54961677 452.03166881 -371.33753726 467.30353207 -376.8125 482.0625 C-377.32006836 483.44236084 -377.32006836 483.44236084 -377.83789062 484.85009766 C-380.81017514 492.77664754 -384.23402729 500.42283875 -388.00439453 507.99853516 C-389.00371184 510.00746192 -389.98546834 512.02425617 -390.96484375 514.04296875 C-406.40878152 545.66316606 -425.8902045 575.0308534 -449.96484375 600.7421875 C-451.91958125 602.83030125 -453.84960197 604.93611924 -455.75390625 607.0703125 C-462.42433388 614.52849048 -469.51072734 621.36721926 -477 628 C-477.51256348 628.45729492 -478.02512695 628.91458984 -478.55322266 629.38574219 C-487.85178075 637.635948 -497.81425834 644.88944404 -508 652 C-509.06879395 652.75216797 -509.06879395 652.75216797 -510.15917969 653.51953125 C-549.74543162 681.23904992 -594.77813743 700.04415643 -642 710 C-643.25039063 710.26425781 -644.50078125 710.52851562 -645.7890625 710.80078125 C-668.02372417 715.21601447 -690.40874713 716.80579597 -713 718 C-713.10489746 719.71207642 -713.10489746 719.71207642 -713.21191406 721.45874023 C-716.1152509 768.14501432 -723.28278618 812.69898296 -742 856 C-742.4626123 857.08909668 -742.4626123 857.08909668 -742.93457031 858.20019531 C-751.44977781 878.16773985 -761.76936545 897.06857353 -774 915 C-774.7110791 916.04897461 -774.7110791 916.04897461 -775.43652344 917.11914062 C-784.73033967 930.76497101 -794.85935803 943.68405647 -806.03125 955.84765625 C-807.85703321 957.84370099 -809.61950065 959.87975666 -811.375 961.9375 C-817.72054093 969.2105794 -824.65534957 976.02293837 -832.00390625 982.27734375 C-833.41113499 983.49180143 -834.79188688 984.73727399 -836.15234375 986.00390625 C-843.0428455 992.41287543 -850.43349119 998.00479201 -858.02001953 1003.55078125 C-859.82083058 1004.86885948 -861.61229166 1006.19862628 -863.40234375 1007.53125 C-877.73082875 1018.09222139 -892.92632486 1027.36268152 -909 1035 C-910.95326368 1035.98194926 -912.90012168 1036.97599271 -914.84741211 1037.96972656 C-950.22342253 1055.94525503 -989.05738648 1067.19516326 -1028.46826172 1071.70751953 C-1030.93099719 1071.99202841 -1033.38890949 1072.30417526 -1035.84765625 1072.62109375 C-1047.58710862 1074.0675469 -1059.18210573 1074.21166378 -1071 1074 C-1072.24163934 1071.51672132 -1072.12653567 1069.8710111 -1072.12880117 1067.09185892 C-1072.13207336 1066.04563741 -1072.13534555 1064.9994159 -1072.13871691 1063.9214907 C-1072.13723328 1062.76076418 -1072.13574966 1061.60003766 -1072.13422108 1060.40413761 C-1072.13657331 1059.17473789 -1072.13892554 1057.94533817 -1072.14134905 1056.67868391 C-1072.14689204 1053.23979813 -1072.14790857 1049.80096318 -1072.14707164 1046.36207643 C-1072.14724063 1042.63028478 -1072.1531412 1038.89850159 -1072.1583125 1035.16671413 C-1072.16765829 1027.75233567 -1072.17156391 1020.33796319 -1072.17383147 1012.92357958 C-1072.17678877 1004.04615843 -1072.18548392 995.16874526 -1072.19424575 986.29132828 C-1072.21511997 964.81948305 -1072.22556806 943.34763642 -1072.23437535 921.87578341 C-1072.23858114 911.7105242 -1072.24380351 901.54526557 -1072.24905988 891.38000686 C-1072.26696045 856.56506139 -1072.28195158 821.75011575 -1072.28938007 786.93516636 C-1072.28985483 784.74790966 -1072.29033072 782.56065297 -1072.29080774 780.37339627 C-1072.29104411 779.28872039 -1072.29128049 778.2040445 -1072.29152403 777.08649965 C-1072.29272521 771.59111369 -1072.29394066 766.09572774 -1072.29516602 760.6003418 C-1072.29540617 759.50976444 -1072.29564632 758.41918709 -1072.29589374 757.29556193 C-1072.30377221 722.00172786 -1072.32716862 686.70792755 -1072.35972196 651.41410819 C-1072.39409365 614.08037518 -1072.41373845 576.74666188 -1072.41702431 539.41291279 C-1072.41744182 535.30602101 -1072.41792138 531.19912924 -1072.41844749 527.09223747 C-1072.41857069 526.08104098 -1072.41869388 525.06984448 -1072.4188208 524.02800567 C-1072.42114479 507.81314127 -1072.43676096 491.59831625 -1072.45728934 475.38346585 C-1072.47764271 459.04598668 -1072.48298019 442.70855435 -1072.47351871 426.37106485 C-1072.46833895 416.68914986 -1072.47401205 407.00739186 -1072.49605338 397.32549976 C-1072.5097161 390.82720982 -1072.5083506 384.32902606 -1072.49565142 377.83073469 C-1072.48885525 374.14786166 -1072.48772759 370.46528513 -1072.50521151 366.78244049 C-1072.69995704 322.99783047 -1066.26269987 278.98084699 -1050.703125 237.88867188 C-1050.02114413 236.05679548 -1049.38476953 234.20814126 -1048.75 232.359375 C-1041.55691133 211.89332508 -1031.27260296 192.4863867 -1020 174 C-1019.17166741 172.61470744 -1018.34353921 171.22929264 -1017.515625 169.84375 C-1009.16839771 156.03348648 -999.36366415 143.35121618 -989 131 C-988.2265625 130.0409375 -987.453125 129.081875 -986.65625 128.09375 C-979.74526195 119.64698682 -972.13018408 111.91439013 -964.4375 104.1875 C-963.90697021 103.65179382 -963.37644043 103.11608765 -962.82983398 102.56414795 C-955.8921861 95.57322826 -948.76340895 89.08504821 -941 83 C-940.40469482 82.52506104 -939.80938965 82.05012207 -939.19604492 81.56079102 C-904.40640709 53.9072019 -865.52905932 32.19706556 -823 19 C-821.56162714 18.51953229 -820.12417896 18.03629052 -818.6875 17.55078125 C-795.8786415 9.94140293 -771.83621371 5.30120577 -747.87719727 3.35327148 C-747.12083768 3.2906704 -746.36447809 3.22806932 -745.58519852 3.16357124 C-725.21756347 1.52036855 -704.83109069 1.45147695 -684.40880322 1.36402774 C-679.63751922 1.34134657 -674.86632504 1.30819791 -670.09510058 1.27553064 C-652.2235169 1.15417025 -634.35182212 1.07834962 -616.47997224 1.00959074 C-613.9564775 0.99983169 -611.4329835 0.989898 -608.90948963 0.97991467 C-552.1238683 0.75554466 -495.33808819 0.6085139 -438.55217439 0.48233789 C-424.01194446 0.45000683 -409.47171846 0.41627393 -394.9314943 0.38144209 C-296.76585588 0.14628467 -198.60021473 -0.0778352 0 0 Z " fill="#0068A8" transform="translate(1072,0)"/>
<path d="M0 0 C0.33 0.66 0.66 1.32 1 2 C236.62 2 472.24 2 715 2 C717.00038278 10.0015311 715.56562449 18.8202957 715 27 C714.9282959 28.05429199 714.8565918 29.10858398 714.78271484 30.19482422 C713.64090129 45.76860297 711.26559013 60.91140251 708.125 76.1875 C707.96023163 76.99394958 707.79546326 77.80039917 707.6257019 78.63128662 C704.45045823 94.03099245 700.66260552 109.30314719 695.1875 124.0625 C694.84912109 124.98240723 694.51074219 125.90231445 694.16210938 126.85009766 C691.18982486 134.77664754 687.76597271 142.42283875 683.99560547 149.99853516 C682.99628816 152.00746192 682.01453166 154.02425617 681.03515625 156.04296875 C665.59121848 187.66316606 646.1097955 217.0308534 622.03515625 242.7421875 C620.08041875 244.83030125 618.15039803 246.93611924 616.24609375 249.0703125 C609.57566612 256.52849048 602.48927266 263.36721926 595 270 C594.48743652 270.45729492 593.97487305 270.91458984 593.44677734 271.38574219 C584.14821925 279.635948 574.18574166 286.88944404 564 294 C563.2874707 294.50144531 562.57494141 295.00289062 561.84082031 295.51953125 C522.25456838 323.23904992 477.22186257 342.04415643 430 352 C428.74960937 352.26425781 427.49921875 352.52851562 426.2109375 352.80078125 C403.97627583 357.21601447 381.59125287 358.80579597 359 360 C358.93006836 361.14138428 358.86013672 362.28276855 358.78808594 363.45874023 C355.8847491 410.14501432 348.71721382 454.69898296 330 498 C329.5373877 499.08909668 329.5373877 499.08909668 329.06542969 500.20019531 C320.55022219 520.16773985 310.23063455 539.06857353 298 557 C297.2889209 558.04897461 297.2889209 558.04897461 296.56347656 559.11914062 C287.26966033 572.76497101 277.14064197 585.68405647 265.96875 597.84765625 C264.14296679 599.84370099 262.38049935 601.87975666 260.625 603.9375 C254.27945907 611.2105794 247.34465043 618.02293837 239.99609375 624.27734375 C238.58886501 625.49180143 237.20811312 626.73727399 235.84765625 628.00390625 C228.9571545 634.41287543 221.56650881 640.00479201 213.97998047 645.55078125 C212.17916942 646.86885948 210.38770834 648.19862628 208.59765625 649.53125 C194.26917125 660.09222139 179.07367514 669.36268152 163 677 C161.04673632 677.98194926 159.09987832 678.97599271 157.15258789 679.96972656 C121.77657747 697.94525503 82.94261352 709.19516326 43.53173828 713.70751953 C41.06900281 713.99202841 38.61109051 714.30417526 36.15234375 714.62109375 C24.41289138 716.0675469 12.81789427 716.21166378 1 716 C-0.23236442 713.53527116 -0.12468139 711.93072962 -0.1241985 709.17341411 C-0.12644579 708.14545964 -0.12869308 707.11750517 -0.13100848 706.05840057 C-0.12838146 704.91815195 -0.12575445 703.77790334 -0.12304783 702.60310173 C-0.12420167 701.39529523 -0.12535552 700.18748873 -0.12654433 698.94308203 C-0.1287481 695.56499215 -0.12642518 692.18695831 -0.12226619 688.80887372 C-0.11884553 685.14351132 -0.1212002 681.47815208 -0.12284368 677.81278908 C-0.12492232 671.38037092 -0.12326532 664.94796198 -0.11920547 658.51554489 C-0.11318529 648.95068605 -0.11286829 639.38583307 -0.11374746 629.82097268 C-0.11506327 613.73353035 -0.11171272 597.64609211 -0.10573006 581.55865097 C-0.09981907 565.62319799 -0.09596533 549.68774671 -0.09487724 533.75229263 C-0.0948085 532.76257851 -0.09473976 531.77286439 -0.09466894 530.75315893 C-0.09433062 525.72718478 -0.09402923 520.70121063 -0.09374207 515.67523648 C-0.09163999 480.04862654 -0.08489798 444.42201884 -0.07543945 408.79541016 C-0.0662595 374.17822278 -0.0591737 339.56103601 -0.05493164 304.94384766 C-0.05480011 303.87735479 -0.05466859 302.81086192 -0.05453308 301.71205108 C-0.05321459 291.00218278 -0.05193877 280.29231448 -0.05069422 269.58244617 C-0.0481578 247.76395863 -0.04533655 225.94547113 -0.04234314 204.12698364 C-0.04220585 203.12373913 -0.04206856 202.12049462 -0.04192711 201.08684876 C-0.03272181 134.05789825 -0.01687607 67.02894897 0 0 Z " fill="#2E76B5" transform="translate(0,358)"/>
<path d="M0 0 C117.81 0 235.62 0 357 0 C357 11.49144345 356.8929085 22.61394546 355.8125 34 C355.7150499 35.05367264 355.7150499 35.05367264 355.6156311 36.12863159 C354.31606686 49.94735082 352.06421484 63.45772849 349 77 C348.77441406 78.01352539 348.54882812 79.02705078 348.31640625 80.07128906 C344.92223471 95.10056557 340.39885642 109.57479806 335 124 C334.73719238 124.70415039 334.47438477 125.40830078 334.20361328 126.13378906 C332.56862962 130.46534899 330.81773597 134.74264299 329 139 C328.6901416 139.73186523 328.3802832 140.46373047 328.06103516 141.21777344 C319.54597195 161.17816809 309.2268203 180.07416562 297 198 C296.52594727 198.69931641 296.05189453 199.39863281 295.56347656 200.11914062 C286.26966033 213.76497101 276.14064197 226.68405647 264.96875 238.84765625 C263.14296679 240.84370099 261.38049935 242.87975666 259.625 244.9375 C253.27945907 252.2105794 246.34465043 259.02293837 238.99609375 265.27734375 C237.58886501 266.49180143 236.20811312 267.73727399 234.84765625 269.00390625 C227.9571545 275.41287543 220.56650881 281.00479201 212.97998047 286.55078125 C211.17916942 287.86885948 209.38770834 289.19862628 207.59765625 290.53125 C193.26917125 301.09222139 178.07367514 310.36268152 162 318 C160.04673632 318.98194926 158.09987832 319.97599271 156.15258789 320.96972656 C120.77657747 338.94525503 81.94261352 350.19516326 42.53173828 354.70751953 C40.06900281 354.99202841 37.61109051 355.30417526 35.15234375 355.62109375 C23.41289138 357.0675469 11.81789427 357.21166378 0 357 C-1.68462634 353.63074732 -1.13636009 349.81468367 -1.12698364 346.10916138 C-1.12854363 345.1750162 -1.13010362 344.24087103 -1.13171089 343.27841842 C-1.13572268 340.12325934 -1.13252939 336.96814779 -1.12939453 333.81298828 C-1.13074946 331.55445833 -1.13252992 329.2959286 -1.13470459 327.03739929 C-1.1392955 320.85070593 -1.13747543 314.66402913 -1.1343255 308.47733545 C-1.13203749 302.56901494 -1.13379424 296.6606964 -1.1352527 290.75237583 C-1.13811737 278.20251361 -1.13481738 265.65265863 -1.12945233 253.10279761 C-1.12509356 242.59098886 -1.12566401 232.0791913 -1.13037109 221.56738281 C-1.13589711 209.22203893 -1.13772855 196.87670165 -1.13475883 184.53135669 C-1.13444055 183.17351143 -1.13412617 181.81566616 -1.13381577 180.45782089 C-1.13366149 179.79087254 -1.13350721 179.1239242 -1.13334826 178.43676529 C-1.13252632 173.9915446 -1.13390294 169.54632857 -1.13629532 165.10110855 C-1.15640223 110.06125422 -0.50964836 55.04202244 0 0 Z " fill="#3191CB" transform="translate(1,717)"/>
<path d="M0 0 C1.63423251 0.00063635 1.63423251 0.00063635 3.30147982 0.00128555 C28.97183051 0.01146718 54.64216811 0.02944941 80.3125 0.0625 C79.9825 1.0525 79.6525 2.0425 79.3125 3.0625 C-122.9775 3.0625 -325.2675 3.0625 -533.6875 3.0625 C-533.6875 2.4025 -533.6875 1.7425 -533.6875 1.0625 C-472.08639534 0.89379229 -410.4852774 0.7302947 -348.88414627 0.57154435 C-345.38551857 0.56252711 -341.8868909 0.55350071 -338.38826323 0.54447412 C-125.99078607 -0.00318803 -125.99078607 -0.00318803 0 0 Z " fill="#0A5D9B" transform="translate(991.6875,-0.0625)"/>
<path d="M0 0 C1.34150694 0.00028278 2.68301403 0.00012237 4.02452087 -0.0004425 C7.63120636 -0.00072695 11.23785792 0.0051122 14.84453559 0.01213145 C18.62680876 0.01842425 22.40908288 0.01897345 26.19136047 0.02015686 C33.33794376 0.02325282 40.48451157 0.0314426 47.63108808 0.04150635 C55.7738705 0.05272165 63.91665369 0.05819153 72.05944192 0.06320179 C88.79525221 0.07362684 105.53104698 0.09119236 122.2668457 0.11352539 C121.9368457 1.10352539 121.6068457 2.09352539 121.2668457 3.11352539 C34.8068457 3.11352539 -51.6531543 3.11352539 -140.7331543 3.11352539 C-140.7331543 2.78352539 -140.7331543 2.45352539 -140.7331543 2.11352539 C-140.14546107 2.10929345 -139.55776785 2.10506151 -138.95226574 2.10070133 C-124.61130926 1.99711671 -110.27039794 1.88843916 -95.92952251 1.77418613 C-88.99420958 1.71905396 -82.05889152 1.66560637 -75.12353516 1.61621094 C-68.42562514 1.56850182 -61.72776832 1.51598391 -55.02991676 1.46058464 C-52.47959413 1.44026647 -49.92925831 1.42153673 -47.37891197 1.40445137 C-43.79601678 1.38017248 -40.21321087 1.35015218 -36.63037109 1.31884766 C-35.58523346 1.31309219 -34.54009583 1.30733673 -33.46328735 1.30140686 C-28.72519265 1.254613 -24.06288001 1.08860469 -19.34790039 0.60778809 C-12.89609607 -0.03118614 -6.47864076 -0.01890391 0 0 Z " fill="#1B3C78" transform="translate(949.733154296875,-0.113525390625)"/>
</svg>
